<svg xmlns="http://www.w3.org/2000/svg" xmlns:xlink="http://www.w3.org/1999/xlink" width="1494pt" height="662pt" viewBox="0.00 0.00 1494.00 662.00">
<g id="graph0" class="graph" transform="scale(1 1) rotate(0) translate(25.2 636.34)">
<title>KTHW_Proxmox</title>
<polygon fill="white" stroke="none" points="-25.2,25.2 -25.2,-636.34 1468.68,-636.34 1468.68,25.2 -25.2,25.2"/>
<text xml:space="preserve" text-anchor="middle" x="721.74" y="-594.54" font-family="Inter" font-size="14.00">Kubernetes the Hard Way — Proxmox Lab (Ubuntu, 10.0.0.22–10.0.0.25)</text>
<g id="clust1" class="cluster">
<title>cluster_admin</title>
<path fill="#f8fafc" stroke="#cbd5e1" d="M454.67,-192C454.67,-192 640.58,-192 640.58,-192 646.58,-192 652.58,-198 652.58,-204 652.58,-204 652.58,-356 652.58,-356 652.58,-362 646.58,-368 640.58,-368 640.58,-368 454.67,-368 454.67,-368 448.67,-368 442.67,-362 442.67,-356 442.67,-356 442.67,-204 442.67,-204 442.67,-198 448.67,-192 454.67,-192"/>
<text xml:space="preserve" text-anchor="middle" x="547.62" y="-353.2" font-family="Inter" font-size="12.00">Administration</text>
</g>
<g id="clust2" class="cluster">
<title>cluster_controlplane</title>
<path fill="#f8fafc" stroke="#cbd5e1" d="M949.88,-240C949.88,-240 1123.08,-240 1123.08,-240 1129.08,-240 1135.08,-246 1135.08,-252 1135.08,-252 1135.08,-422 1135.08,-422 1135.08,-428 1129.08,-434 1123.08,-434 1123.08,-434 949.88,-434 949.88,-434 943.88,-434 937.88,-428 937.88,-422 937.88,-422 937.88,-252 937.88,-252 937.88,-246 943.88,-240 949.88,-240"/>
<text xml:space="preserve" text-anchor="middle" x="1036.48" y="-419.2" font-family="Inter" font-size="12.00">Control Plane</text>
</g>
<g id="clust3" class="cluster">
<title>cluster_workers</title>
<path fill="#f8fafc" stroke="#cbd5e1" d="M1284.83,-227C1284.83,-227 1423.48,-227 1423.48,-227 1429.48,-227 1435.48,-233 1435.48,-239 1435.48,-239 1435.48,-520 1435.48,-520 1435.48,-526 1429.48,-532 1423.48,-532 1423.48,-532 1284.83,-532 1284.83,-532 1278.83,-532 1272.83,-526 1272.83,-520 1272.83,-520 1272.83,-239 1272.83,-239 1272.83,-233 1278.83,-227 1284.83,-227"/>
<text xml:space="preserve" text-anchor="middle" x="1354.16" y="-517.2" font-family="Inter" font-size="12.00">Worker Nodes</text>
</g>
<g id="clust5" class="cluster">
<title>cluster_components</title>
<path fill="#ffffff" stroke="#cbd5e1" d="M357.38,-8C357.38,-8 737.87,-8 737.87,-8 743.87,-8 749.87,-14 749.87,-20 749.87,-20 749.87,-172 749.87,-172 749.87,-178 743.87,-184 737.87,-184 737.87,-184 357.38,-184 357.38,-184 351.38,-184 345.38,-178 345.38,-172 345.38,-172 345.38,-20 345.38,-20 345.38,-14 351.38,-8 357.38,-8"/>
<text xml:space="preserve" text-anchor="middle" x="547.62" y="-169.2" font-family="Inter" font-size="12.00">K8s Component Cheat-Sheet</text>
</g>
<!-- vmbr0 -->
<g id="node1" class="node">
<title>vmbr0</title>
<ellipse fill="#fde68a" stroke="#f59e0b" cx="143.19" cy="-440" rx="109.53" ry="32.58"/>
<text xml:space="preserve" text-anchor="middle" x="143.19" y="-443.6" font-family="Inter" font-size="12.00" fill="#111827">Proxmox bridge: vmbr0</text>
<text xml:space="preserve" text-anchor="middle" x="143.19" y="-429.2" font-family="Inter" font-size="12.00" fill="#111827">Node network: 10.0.0.0/24</text>
</g>
<!-- jumpbox -->
<g id="node2" class="node">
<title>jumpbox</title>
<path fill="#e0f2fe" stroke="#2f3b5c" d="M632.58,-337.64C632.58,-337.64 462.67,-337.64 462.67,-337.64 456.67,-337.64 450.67,-331.64 450.67,-325.64 450.67,-325.64 450.67,-212.36 450.67,-212.36 450.67,-206.36 456.67,-200.36 462.67,-200.36 462.67,-200.36 632.58,-200.36 632.58,-200.36 638.58,-200.36 644.58,-206.36 644.58,-212.36 644.58,-212.36 644.58,-325.64 644.58,-325.64 644.58,-331.64 638.58,-337.64 632.58,-337.64"/>
<text xml:space="preserve" text-anchor="start" x="512.62" y="-319.2" font-family="Inter" font-size="12.00" fill="#111827">        </text>
<text xml:space="preserve" text-anchor="start" x="536.62" y="-319.2" font-family="Inter" font-weight="bold" font-size="12.00" fill="#111827">jumpbox</text>
<text xml:space="preserve" text-anchor="start" x="509.79" y="-307.2" font-family="Inter" font-size="12.00" fill="#111827">        </text>
<text xml:space="preserve" text-anchor="start" x="533.79" y="-307.2" font-family="Inter" font-size="10.00" fill="#111827">IP: 10.0.0.22</text>
<text xml:space="preserve" text-anchor="start" x="463.63" y="-283.2" font-family="Inter" font-size="12.00" fill="#111827">        </text>
<text xml:space="preserve" text-anchor="start" x="487.63" y="-283.2" font-family="Inter" text-decoration="underline" font-size="12.00" fill="#111827">Purpose</text>
<text xml:space="preserve" text-anchor="start" x="463.63" y="-271.2" font-family="Inter" font-size="12.00" fill="#111827">        • Run commands from here</text>
<text xml:space="preserve" text-anchor="start" x="463.63" y="-259.2" font-family="Inter" font-size="12.00" fill="#111827">        • Generate certs/kubeconfigs</text>
<text xml:space="preserve" text-anchor="start" x="463.63" y="-247.2" font-family="Inter" font-size="12.00" fill="#111827">        • Holds downloaded binaries</text>
<text xml:space="preserve" text-anchor="start" x="463.63" y="-223.2" font-family="Inter" font-size="12.00" fill="#111827">        </text>
<text xml:space="preserve" text-anchor="start" x="487.63" y="-223.2" font-family="Inter" text-decoration="underline" font-size="12.00" fill="#111827">Tools</text>
<text xml:space="preserve" text-anchor="start" x="463.63" y="-211.2" font-family="Inter" font-size="12.00" fill="#111827">        • kubectl • openssl • git      </text>
</g>
<!-- vmbr0&#45;&gt;jumpbox -->
<g id="edge1" class="edge">
<title>vmbr0-&gt;jumpbox</title>
<path fill="none" stroke="#94a3b8" d="M207.07,-413.28C272.28,-385.57 375.07,-341.89 450.49,-309.85"/>
</g>
<!-- server -->
<g id="node3" class="node">
<title>server</title>
<path fill="#dbeafe" stroke="#2f3b5c" d="M1115.08,-361.64C1115.08,-361.64 957.88,-361.64 957.88,-361.64 951.88,-361.64 945.88,-355.64 945.88,-349.64 945.88,-349.64 945.88,-260.36 945.88,-260.36 945.88,-254.36 951.88,-248.36 957.88,-248.36 957.88,-248.36 1115.08,-248.36 1115.08,-248.36 1121.08,-248.36 1127.08,-254.36 1127.08,-260.36 1127.08,-260.36 1127.08,-349.64 1127.08,-349.64 1127.08,-355.64 1121.08,-361.64 1115.08,-361.64"/>
<text xml:space="preserve" text-anchor="start" x="977.42" y="-343.2" font-family="Inter" font-size="12.00" fill="#111827">        </text>
<text xml:space="preserve" text-anchor="start" x="1001.42" y="-343.2" font-family="Inter" font-weight="bold" font-size="12.00" fill="#111827">server</text>
<text xml:space="preserve" text-anchor="start" x="1033.4" y="-343.2" font-family="Inter" font-size="12.00" fill="#111827"> </text>
<text xml:space="preserve" text-anchor="start" x="1036.4" y="-343.2" font-family="Inter" font-size="10.00" fill="#111827">(control plane)</text>
<text xml:space="preserve" text-anchor="start" x="998.65" y="-331.2" font-family="Inter" font-size="12.00" fill="#111827">        </text>
<text xml:space="preserve" text-anchor="start" x="1022.65" y="-331.2" font-family="Inter" font-size="10.00" fill="#111827">IP: 10.0.0.23</text>
<text xml:space="preserve" text-anchor="start" x="958.84" y="-307.2" font-family="Inter" font-size="12.00" fill="#111827">        </text>
<text xml:space="preserve" text-anchor="start" x="982.84" y="-307.2" font-family="Inter" text-decoration="underline" font-size="12.00" fill="#111827">Runs</text>
<text xml:space="preserve" text-anchor="start" x="958.84" y="-295.2" font-family="Inter" font-size="12.00" fill="#111827">        • etcd</text>
<text xml:space="preserve" text-anchor="start" x="958.84" y="-283.2" font-family="Inter" font-size="12.00" fill="#111827">        • kube-apiserver</text>
<text xml:space="preserve" text-anchor="start" x="958.84" y="-271.2" font-family="Inter" font-size="12.00" fill="#111827">        • kube-controller-manager</text>
<text xml:space="preserve" text-anchor="start" x="972.83" y="-259.2" font-family="Inter" font-size="12.00" fill="#111827">        • kube-scheduler      </text>
</g>
<!-- vmbr0&#45;&gt;server -->
<g id="edge2" class="edge">
<title>vmbr0-&gt;server</title>
<path fill="none" stroke="#94a3b8" d="M250.35,-432.59C371.74,-423.15 576.11,-404.33 749.87,-374 815.95,-362.47 889.5,-344.58 945.42,-329.9"/>
</g>
<!-- node0 -->
<g id="node4" class="node">
<title>node0</title>
<path fill="#dcfce7" stroke="#2f3b5c" d="M1415.48,-501.64C1415.48,-501.64 1292.83,-501.64 1292.83,-501.64 1286.83,-501.64 1280.83,-495.64 1280.83,-489.64 1280.83,-489.64 1280.83,-400.36 1280.83,-400.36 1280.83,-394.36 1286.83,-388.36 1292.83,-388.36 1292.83,-388.36 1415.48,-388.36 1415.48,-388.36 1421.48,-388.36 1427.48,-394.36 1427.48,-400.36 1427.48,-400.36 1427.48,-489.64 1427.48,-489.64 1427.48,-495.64 1421.48,-501.64 1415.48,-501.64"/>
<text xml:space="preserve" text-anchor="start" x="1305.83" y="-483.2" font-family="Inter" font-size="12.00" fill="#111827">        </text>
<text xml:space="preserve" text-anchor="start" x="1329.83" y="-483.2" font-family="Inter" font-weight="bold" font-size="12.00" fill="#111827">node-0</text>
<text xml:space="preserve" text-anchor="start" x="1364.5" y="-483.2" font-family="Inter" font-size="12.00" fill="#111827"> </text>
<text xml:space="preserve" text-anchor="start" x="1367.5" y="-483.2" font-family="Inter" font-size="10.00" fill="#111827">(worker)</text>
<text xml:space="preserve" text-anchor="start" x="1316.32" y="-471.2" font-family="Inter" font-size="12.00" fill="#111827">        </text>
<text xml:space="preserve" text-anchor="start" x="1340.32" y="-471.2" font-family="Inter" font-size="10.00" fill="#111827">IP: 10.0.0.24</text>
<text xml:space="preserve" text-anchor="start" x="1293.79" y="-447.2" font-family="Inter" font-size="12.00" fill="#111827">        </text>
<text xml:space="preserve" text-anchor="start" x="1317.79" y="-447.2" font-family="Inter" text-decoration="underline" font-size="12.00" fill="#111827">Runs</text>
<text xml:space="preserve" text-anchor="start" x="1293.79" y="-435.2" font-family="Inter" font-size="12.00" fill="#111827">        • containerd + runc</text>
<text xml:space="preserve" text-anchor="start" x="1293.79" y="-423.2" font-family="Inter" font-size="12.00" fill="#111827">        • kubelet</text>
<text xml:space="preserve" text-anchor="start" x="1293.79" y="-411.2" font-family="Inter" font-size="12.00" fill="#111827">        • kube-proxy</text>
<text xml:space="preserve" text-anchor="start" x="1297.66" y="-399.2" font-family="Inter" font-size="12.00" fill="#111827">        • CNI plugins      </text>
</g>
<!-- vmbr0&#45;&gt;node0 -->
<g id="edge3" class="edge">
<title>vmbr0-&gt;node0</title>
<path fill="none" stroke="#94a3b8" d="M198.09,-468.58C231.89,-484.85 276.96,-503.62 319.38,-512 724.21,-591.94 851.63,-627.34 1247.83,-512 1258.96,-508.76 1270.04,-503.95 1280.61,-498.36"/>
</g>
<!-- node1 -->
<g id="node5" class="node">
<title>node1</title>
<path fill="#dcfce7" stroke="#2f3b5c" d="M1415.48,-348.64C1415.48,-348.64 1292.83,-348.64 1292.83,-348.64 1286.83,-348.64 1280.83,-342.64 1280.83,-336.64 1280.83,-336.64 1280.83,-247.36 1280.83,-247.36 1280.83,-241.36 1286.83,-235.36 1292.83,-235.36 1292.83,-235.36 1415.48,-235.36 1415.48,-235.36 1421.48,-235.36 1427.48,-241.36 1427.48,-247.36 1427.48,-247.36 1427.48,-336.64 1427.48,-336.64 1427.48,-342.64 1421.48,-348.64 1415.48,-348.64"/>
<text xml:space="preserve" text-anchor="start" x="1305.83" y="-330.2" font-family="Inter" font-size="12.00" fill="#111827">        </text>
<text xml:space="preserve" text-anchor="start" x="1329.83" y="-330.2" font-family="Inter" font-weight="bold" font-size="12.00" fill="#111827">node-1</text>
<text xml:space="preserve" text-anchor="start" x="1364.5" y="-330.2" font-family="Inter" font-size="12.00" fill="#111827"> </text>
<text xml:space="preserve" text-anchor="start" x="1367.5" y="-330.2" font-family="Inter" font-size="10.00" fill="#111827">(worker)</text>
<text xml:space="preserve" text-anchor="start" x="1316.32" y="-318.2" font-family="Inter" font-size="12.00" fill="#111827">        </text>
<text xml:space="preserve" text-anchor="start" x="1340.32" y="-318.2" font-family="Inter" font-size="10.00" fill="#111827">IP: 10.0.0.25</text>
<text xml:space="preserve" text-anchor="start" x="1293.79" y="-294.2" font-family="Inter" font-size="12.00" fill="#111827">        </text>
<text xml:space="preserve" text-anchor="start" x="1317.79" y="-294.2" font-family="Inter" text-decoration="underline" font-size="12.00" fill="#111827">Runs</text>
<text xml:space="preserve" text-anchor="start" x="1293.79" y="-282.2" font-family="Inter" font-size="12.00" fill="#111827">        • containerd + runc</text>
<text xml:space="preserve" text-anchor="start" x="1293.79" y="-270.2" font-family="Inter" font-size="12.00" fill="#111827">        • kubelet</text>
<text xml:space="preserve" text-anchor="start" x="1293.79" y="-258.2" font-family="Inter" font-size="12.00" fill="#111827">        • kube-proxy</text>
<text xml:space="preserve" text-anchor="start" x="1297.66" y="-246.2" font-family="Inter" font-size="12.00" fill="#111827">        • CNI plugins      </text>
</g>
<!-- vmbr0&#45;&gt;node1 -->
<g id="edge4" class="edge">
<title>vmbr0-&gt;node1</title>
<path fill="none" stroke="#94a3b8" d="M245.14,-452.4C269.72,-454.53 295.96,-456.05 320.38,-456 526.48,-455.56 1082.88,-575.57 1247.83,-452 1279.01,-428.65 1252.43,-401.18 1272.83,-368 1276.85,-361.46 1281.58,-355.1 1286.69,-349.04"/>
</g>
<!-- jumpbox&#45;&gt;server -->
<g id="edge5" class="edge">
<title>jumpbox-&gt;server</title>
<path fill="none" stroke="#2563eb" stroke-width="1.6" d="M644.81,-276.11C728.83,-282.32 850.33,-291.31 935.46,-297.6"/>
<polygon fill="#2563eb" stroke="#2563eb" stroke-width="1.6" points="935.06,-300.38 943.24,-298.18 935.47,-294.8 935.06,-300.38"/>
<text xml:space="preserve" text-anchor="middle" x="843.88" y="-310.35" font-family="Inter" font-size="10.00" fill="#334155">kubectl / admin</text>
<text xml:space="preserve" text-anchor="middle" x="843.88" y="-298.35" font-family="Inter" font-size="10.00" fill="#334155">SSH + configs</text>
</g>
<!-- server&#45;&gt;server -->
<g id="edge10" class="edge">
<title>server-&gt;server</title>
<path fill="none" stroke="#1d4ed8" stroke-width="1.2" d="M1005.17,-362.06C1003.97,-383.72 1014.4,-401.64 1036.48,-401.64 1055.28,-401.64 1065.64,-388.65 1067.56,-371.41"/>
<polygon fill="#1d4ed8" stroke="#1d4ed8" stroke-width="1.2" points="1070.34,-371.95 1067.74,-363.88 1064.75,-371.81 1070.34,-371.95"/>
<text xml:space="preserve" text-anchor="middle" x="1036.48" y="-416.64" font-family="Inter" font-size="10.00" fill="#334155">cluster state</text>
<text xml:space="preserve" text-anchor="middle" x="1036.48" y="-404.64" font-family="Inter" font-size="10.00" fill="#334155">(etcd)</text>
</g>
<!-- server&#45;&gt;node0 -->
<g id="edge6" class="edge">
<title>server-&gt;node0</title>
<path fill="none" stroke="#16a34a" stroke-width="1.6" d="M1127.52,-327.28C1165.65,-338.33 1209.92,-353.35 1247.83,-372 1255.74,-375.89 1263.72,-380.32 1271.56,-385.04"/>
<polygon fill="#16a34a" stroke="#16a34a" stroke-width="1.6" points="1270.01,-387.37 1278.28,-389.19 1272.95,-382.6 1270.01,-387.37"/>
<text xml:space="preserve" text-anchor="middle" x="1203.96" y="-375" font-family="Inter" font-size="10.00" fill="#334155">API ↔ kubelet</text>
</g>
<!-- server&#45;&gt;node0 -->
<g id="edge8" class="edge">
<title>server-&gt;node0</title>
<path fill="none" stroke="#b45309" stroke-dasharray="5,2" d="M1115.24,-361.97C1129.71,-371.12 1145.02,-379.9 1160.08,-387 1195.39,-403.65 1236.59,-416.81 1271.84,-426.35"/>
<polygon fill="#b45309" stroke="#b45309" points="1270.75,-428.95 1279.2,-428.31 1272.19,-423.54 1270.75,-428.95"/>
<text xml:space="preserve" text-anchor="middle" x="1203.96" y="-432.98" font-family="Inter" font-size="10.00" fill="#334155">Services / kube-proxy</text>
<text xml:space="preserve" text-anchor="middle" x="1203.96" y="-420.98" font-family="Inter" font-size="10.00" fill="#334155">CNI networking</text>
</g>
<!-- server&#45;&gt;node1 -->
<g id="edge7" class="edge">
<title>server-&gt;node1</title>
<path fill="none" stroke="#16a34a" stroke-width="1.6" d="M1127.56,-256.17C1138.27,-252.02 1149.25,-248.47 1160.08,-246 1198.1,-237.33 1209.65,-238.03 1247.83,-246 1255.45,-247.59 1263.2,-249.77 1270.85,-252.31"/>
<polygon fill="#16a34a" stroke="#16a34a" stroke-width="1.6" points="1269.73,-254.88 1278.2,-254.91 1271.59,-249.6 1269.73,-254.88"/>
<text xml:space="preserve" text-anchor="middle" x="1203.96" y="-249" font-family="Inter" font-size="10.00" fill="#334155">API ↔ kubelet</text>
</g>
<!-- server&#45;&gt;node1 -->
<g id="edge9" class="edge">
<title>server-&gt;node1</title>
<path fill="none" stroke="#b45309" stroke-dasharray="5,2" d="M1127.52,-301.29C1172.78,-299.43 1227.21,-297.19 1271.28,-295.37"/>
<polygon fill="#b45309" stroke="#b45309" points="1271.13,-298.18 1279.01,-295.05 1270.9,-292.59 1271.13,-298.18"/>
<text xml:space="preserve" text-anchor="middle" x="1203.96" y="-314.66" font-family="Inter" font-size="10.00" fill="#334155">Services / kube-proxy</text>
<text xml:space="preserve" text-anchor="middle" x="1203.96" y="-302.66" font-family="Inter" font-size="10.00" fill="#334155">CNI networking</text>
</g>
<!-- legend -->
<g id="node6" class="node">
<title>legend</title>
<path fill="#ffffff" stroke="#cbd5e1" d="M274.38,-301.64C274.38,-301.64 12,-301.64 12,-301.64 6,-301.64 0,-295.64 0,-289.64 0,-289.64 0,-248.36 0,-248.36 0,-242.36 6,-236.36 12,-236.36 12,-236.36 274.38,-236.36 274.38,-236.36 280.38,-236.36 286.38,-242.36 286.38,-248.36 286.38,-248.36 286.38,-289.64 286.38,-289.64 286.38,-295.64 280.38,-301.64 274.38,-301.64"/>
<text xml:space="preserve" text-anchor="start" x="12.96" y="-283.2" font-family="Inter" font-size="12.00" fill="#111827">      </text>
<text xml:space="preserve" text-anchor="start" x="30.96" y="-283.2" font-family="Inter" font-weight="bold" font-size="12.00" fill="#111827">Legend</text>
<text xml:space="preserve" text-anchor="start" x="12.96" y="-271.2" font-family="Inter" font-size="12.00" fill="#111827">      • jumpbox = admin workstation VM</text>
<text xml:space="preserve" text-anchor="start" x="12.96" y="-259.2" font-family="Inter" font-size="12.00" fill="#111827">      • server = control plane + etcd (KTHW topology)</text>
<text xml:space="preserve" text-anchor="start" x="34.82" y="-247.2" font-family="Inter" font-size="12.00" fill="#111827">      • node-0/node-1 = workers (run Pods)    </text>
</g>
<!-- legend&#45;&gt;jumpbox -->
<!-- comps -->
<g id="node7" class="node">
<title>comps</title>
<path fill="#f1f5f9" stroke="#cbd5e1" d="M729.87,-153.64C729.87,-153.64 365.38,-153.64 365.38,-153.64 359.38,-153.64 353.38,-147.64 353.38,-141.64 353.38,-141.64 353.38,-28.36 353.38,-28.36 353.38,-22.36 359.38,-16.36 365.38,-16.36 365.38,-16.36 729.87,-16.36 729.87,-16.36 735.87,-16.36 741.87,-22.36 741.87,-28.36 741.87,-28.36 741.87,-141.64 741.87,-141.64 741.87,-147.64 735.87,-153.64 729.87,-153.64"/>
<text xml:space="preserve" text-anchor="start" x="366.34" y="-135.2" font-family="Inter" font-size="12.00" fill="#111827">        </text>
<text xml:space="preserve" text-anchor="start" x="390.34" y="-135.2" font-family="Inter" font-weight="bold" font-size="12.00" fill="#111827">etcd</text>
<text xml:space="preserve" text-anchor="start" x="411.66" y="-135.2" font-family="Inter" font-size="12.00" fill="#111827">: stores all cluster state (key-value DB).</text>
<text xml:space="preserve" text-anchor="start" x="366.34" y="-123.2" font-family="Inter" font-size="12.00" fill="#111827">        </text>
<text xml:space="preserve" text-anchor="start" x="390.34" y="-123.2" font-family="Inter" font-weight="bold" font-size="12.00" fill="#111827">kube-apiserver</text>
<text xml:space="preserve" text-anchor="start" x="467.67" y="-123.2" font-family="Inter" font-size="12.00" fill="#111827">: the front door; all requests go through the API.</text>
<text xml:space="preserve" text-anchor="start" x="366.34" y="-111.2" font-family="Inter" font-size="12.00" fill="#111827">        </text>
<text xml:space="preserve" text-anchor="start" x="390.34" y="-111.2" font-family="Inter" font-weight="bold" font-size="12.00" fill="#111827">kube-controller-manager</text>
<text xml:space="preserve" text-anchor="start" x="519.65" y="-111.2" font-family="Inter" font-size="12.00" fill="#111827">: runs controllers to make desired state real.</text>
<text xml:space="preserve" text-anchor="start" x="366.34" y="-99.2" font-family="Inter" font-size="12.00" fill="#111827">        </text>
<text xml:space="preserve" text-anchor="start" x="390.34" y="-99.2" font-family="Inter" font-weight="bold" font-size="12.00" fill="#111827">kube-scheduler</text>
<text xml:space="preserve" text-anchor="start" x="469.01" y="-99.2" font-family="Inter" font-size="12.00" fill="#111827">: picks which node each Pod should run on.</text>
<text xml:space="preserve" text-anchor="start" x="366.34" y="-87.2" font-family="Inter" font-size="12.00" fill="#111827">        </text>
<text xml:space="preserve" text-anchor="start" x="390.34" y="-87.2" font-family="Inter" font-weight="bold" font-size="12.00" fill="#111827">kubelet</text>
<text xml:space="preserve" text-anchor="start" x="428.34" y="-87.2" font-family="Inter" font-size="12.00" fill="#111827">: node agent that starts/monitors Pods on a worker.</text>
<text xml:space="preserve" text-anchor="start" x="366.34" y="-75.2" font-family="Inter" font-size="12.00" fill="#111827">        </text>
<text xml:space="preserve" text-anchor="start" x="390.34" y="-75.2" font-family="Inter" font-weight="bold" font-size="12.00" fill="#111827">kube-proxy</text>
<text xml:space="preserve" text-anchor="start" x="449.68" y="-75.2" font-family="Inter" font-size="12.00" fill="#111827">: programs Service networking (iptables/ipvs rules).</text>
<text xml:space="preserve" text-anchor="start" x="366.34" y="-63.2" font-family="Inter" font-size="12.00" fill="#111827">        </text>
<text xml:space="preserve" text-anchor="start" x="390.34" y="-63.2" font-family="Inter" font-weight="bold" font-size="12.00" fill="#111827">containerd</text>
<text xml:space="preserve" text-anchor="start" x="445.67" y="-63.2" font-family="Inter" font-size="12.00" fill="#111827">: runs containers via CRI for kubelet.</text>
<text xml:space="preserve" text-anchor="start" x="366.34" y="-51.2" font-family="Inter" font-size="12.00" fill="#111827">        </text>
<text xml:space="preserve" text-anchor="start" x="390.34" y="-51.2" font-family="Inter" font-weight="bold" font-size="12.00" fill="#111827">runc</text>
<text xml:space="preserve" text-anchor="start" x="414.34" y="-51.2" font-family="Inter" font-size="12.00" fill="#111827">: low-level OCI runtime used by containerd.</text>
<text xml:space="preserve" text-anchor="start" x="366.34" y="-39.2" font-family="Inter" font-size="12.00" fill="#111827">        </text>
<text xml:space="preserve" text-anchor="start" x="390.34" y="-39.2" font-family="Inter" font-weight="bold" font-size="12.00" fill="#111827">CNI plugins</text>
<text xml:space="preserve" text-anchor="start" x="452.7" y="-39.2" font-family="Inter" font-size="12.00" fill="#111827">: connect Pods to the network (pod-to-pod connectivity).</text>
<text xml:space="preserve" text-anchor="start" x="378.31" y="-27.2" font-family="Inter" font-size="12.00" fill="#111827">        </text>
<text xml:space="preserve" text-anchor="start" x="402.31" y="-27.2" font-family="Inter" font-weight="bold" font-size="12.00" fill="#111827">kubectl</text>
<text xml:space="preserve" text-anchor="start" x="440.31" y="-27.2" font-family="Inter" font-size="12.00" fill="#111827">: CLI you use from jumpbox to talk to the API server.      </text>
</g>
<!-- comps&#45;&gt;server -->
<g id="edge12" class="edge">
<title>comps-&gt;server</title>
<path fill="none" stroke="#94a3b8" stroke-dasharray="1,5" d="M701.33,-154.01C778.35,-188.81 869.51,-230 937.14,-260.56"/>
<polygon fill="#94a3b8" stroke="#94a3b8" points="935.87,-263.06 944.31,-263.8 938.17,-257.96 935.87,-263.06"/>
<text xml:space="preserve" text-anchor="middle" x="843.88" y="-249" font-family="Inter" font-size="10.00" fill="#334155">components live here / on workers</text>
</g>
</g>
</svg>